<svg width="1280" height="850" viewBox="0 0 1280 850" fill="none" xmlns="http://www.w3.org/2000/svg">
<g clip-path="url(#clip0)">
<rect width="1280" height="850" fill="#FAFAFA"/>
<path d="M574.817 297.504C574.817 293.658 577.937 290.518 581.776 290.749C597.355 291.684 612.61 295.754 626.619 302.741C640.627 309.728 653.056 319.465 663.176 331.347C665.669 334.275 665.039 338.656 661.967 340.97C658.894 343.284 654.546 342.651 652.028 339.744C643.223 329.575 632.48 321.229 620.403 315.205C608.325 309.181 595.195 305.621 581.775 304.705C577.938 304.443 574.817 301.35 574.817 297.504Z" fill="#00BCD4"/>
<path d="M704.81 57.2478C704.81 53.4017 707.93 50.2621 711.77 50.4927C728.879 51.5205 745.58 56.3278 760.657 64.6031C775.733 72.8783 788.756 84.386 798.81 98.2682C801.066 101.383 800.093 105.702 796.849 107.767C793.604 109.832 789.319 108.859 787.037 105.763C778.258 93.8484 766.977 83.9603 753.955 76.8126C740.933 69.6649 726.533 65.4572 711.768 64.449C707.931 64.187 704.81 61.0938 704.81 57.2478Z" fill="#00BCD4"/>
<path d="M492.351 685.32C489.117 683.239 488.165 678.916 490.436 675.812C500.196 662.474 512.71 651.351 527.159 643.216C541.608 635.081 557.608 630.15 574.074 628.722C577.906 628.389 581.109 631.445 581.211 635.29C581.312 639.135 578.274 642.309 574.445 642.673C560.248 644.021 546.464 648.331 533.992 655.352C521.521 662.374 510.688 671.925 502.172 683.365C499.876 686.45 495.585 687.401 492.351 685.32Z" fill="#00BCD4"/>
<path d="M854.534 455.353C854.534 451.507 857.654 448.368 861.493 448.598C874.355 449.371 887.016 452.281 898.95 457.224C913.031 463.057 925.826 471.606 936.604 482.384C947.382 493.162 955.931 505.957 961.764 520.038C966.707 531.972 969.617 544.633 970.39 557.495C970.62 561.334 967.481 564.454 963.635 564.454C959.789 564.454 956.696 561.333 956.434 557.496C955.68 546.464 953.139 535.612 948.896 525.368C943.763 512.976 936.24 501.717 926.756 492.232C917.271 482.748 906.012 475.225 893.62 470.092C883.376 465.849 872.524 463.308 861.492 462.554C857.655 462.292 854.534 459.199 854.534 455.353Z" fill="#00BCD4"/>
<path d="M765.546 722.588C769.283 723.498 771.594 727.274 770.462 730.949C762.13 757.989 744.17 781.143 719.859 795.929C695.549 810.716 666.73 816.016 638.887 810.979C635.103 810.295 632.813 806.505 633.723 802.769C634.634 799.032 638.399 796.765 642.189 797.419C666.435 801.601 691.468 796.896 712.622 784.03C733.775 771.163 749.465 751.098 756.902 727.645C758.065 723.979 761.809 721.678 765.546 722.588Z" fill="#00BCD4"/>
<path d="M745.815 548.49C749.552 549.4 751.863 553.176 750.731 556.852C743.081 581.679 727.313 603.23 705.967 618.036C702.807 620.228 698.508 619.168 696.509 615.882C694.511 612.596 695.571 608.331 698.713 606.113C716.923 593.26 730.434 574.794 737.171 553.547C738.334 549.881 742.078 547.58 745.815 548.49Z" fill="#00BCD4"/>
<path d="M1012.76 739.998C1016.5 740.908 1018.81 744.683 1017.68 748.359C1012.52 765.099 1003.63 780.485 991.642 793.339C979.654 806.193 964.924 816.134 948.584 822.446C944.996 823.832 941.069 821.788 939.901 818.124C938.733 814.46 940.767 810.564 944.343 809.149C958.412 803.582 971.097 794.947 981.457 783.84C991.816 772.732 999.547 759.477 1004.12 745.055C1005.28 741.389 1009.03 739.088 1012.76 739.998Z" fill="#00BCD4"/>
<path d="M1151.66 86.2654C1151.66 82.4193 1154.78 79.2797 1158.62 79.5103C1175.4 80.5182 1191.79 85.1614 1206.64 93.1508C1221.5 101.14 1234.4 112.257 1244.49 125.702C1246.8 128.778 1245.9 133.112 1242.69 135.232C1239.48 137.352 1235.18 136.452 1232.85 133.395C1224.05 121.862 1212.87 112.315 1200.04 105.417C1187.22 98.5185 1173.09 94.455 1158.62 93.4666C1154.78 93.2045 1151.66 90.1114 1151.66 86.2654Z" fill="#00BCD4"/>
<path d="M1246.83 739.712C1246.83 743.558 1243.71 746.698 1239.87 746.467C1211.63 744.771 1184.88 732.801 1164.76 712.681C1144.64 692.561 1132.67 665.815 1130.98 637.571C1130.75 633.732 1133.89 630.611 1137.73 630.611C1141.58 630.611 1144.67 633.733 1144.93 637.57C1146.61 662.116 1157.1 685.325 1174.61 702.833C1192.12 720.34 1215.33 730.835 1239.87 732.511C1243.71 732.773 1246.83 735.866 1246.83 739.712Z" fill="#00BCD4"/>
<path d="M210.99 250.535C208.27 247.815 208.257 243.388 211.134 240.837C228.076 225.815 249.088 216.04 271.6 212.8C294.112 209.559 317.026 213.011 337.517 222.645C340.998 224.281 342.234 228.532 340.392 231.908C338.549 235.285 334.328 236.505 330.834 234.897C312.995 226.687 293.117 223.774 273.584 226.586C254.05 229.397 235.801 237.799 221.002 250.706C218.104 253.234 213.709 253.254 210.99 250.535Z" fill="#00BCD4"/>
<path d="M150.018 153.583C146.172 153.583 143.033 150.463 143.263 146.624C144.216 130.771 148.413 115.256 155.624 101.05C162.834 86.8451 172.88 74.2987 185.114 64.1725C188.077 61.7202 192.449 62.4124 194.719 65.5169C196.99 68.6214 196.296 72.9608 193.353 75.4373C182.877 84.2536 174.262 95.1029 168.043 107.354C161.824 119.606 158.152 132.964 157.22 146.625C156.958 150.462 153.864 153.583 150.018 153.583Z" fill="#00BCD4"/>
<path d="M375.116 385.986C378.51 387.796 379.812 392.027 377.802 395.306C366.174 414.273 349.309 429.544 329.173 439.233C309.037 448.921 286.579 452.569 264.502 449.819C260.685 449.343 258.191 445.686 258.895 441.904C259.598 438.123 263.233 435.653 267.054 436.098C286.214 438.326 305.667 435.086 323.134 426.682C340.601 418.278 355.272 405.099 365.488 388.737C367.525 385.475 371.723 384.176 375.116 385.986Z" fill="#00BCD4"/>
<path d="M25.644 60.366C23.7144 57.039 24.8388 52.7575 28.2756 51.0309C39.7893 45.2465 52.2011 41.4123 65.0047 39.7012C77.8083 37.9901 90.7913 38.4304 103.42 40.9883C107.19 41.7518 109.399 45.5878 108.411 49.3048C107.422 53.0217 103.611 55.209 99.8354 54.4764C88.9806 52.3701 77.84 52.0375 66.8497 53.5063C55.8593 54.9751 45.1971 58.2215 35.2763 63.1043C31.8256 64.8027 27.5735 63.693 25.644 60.366Z" fill="#00BCD4"/>
<path d="M251.999 76.6817C248.802 74.5436 247.927 70.204 250.253 67.141C261.058 52.9124 275.005 41.3688 291.002 33.413C294.446 31.7003 298.545 33.3706 300.049 36.9108C301.552 40.451 299.887 44.5181 296.458 46.2588C282.941 53.1195 271.119 62.9045 261.853 74.9009C259.502 77.9447 255.196 78.8199 251.999 76.6817Z" fill="#00BCD4"/>
<path d="M424.454 95.063C420.79 96.2324 416.85 94.2132 415.903 90.4858C409.501 65.3078 411.736 38.6986 422.246 14.9406C423.802 11.4233 428.023 10.0894 431.441 11.8534C434.859 13.6174 436.175 17.8103 434.648 21.3402C425.798 41.7968 423.884 64.5979 429.199 86.2439C430.116 89.979 428.118 93.8937 424.454 95.063Z" fill="#00BCD4"/>
<path d="M602.41 685.943C601.951 682.124 604.674 678.634 608.514 678.405C626.348 677.338 644.191 680.405 660.646 687.364C664.188 688.862 665.591 693.061 663.883 696.507C662.175 699.953 658.005 701.338 654.45 699.869C640.441 694.08 625.317 691.48 610.179 692.261C606.338 692.459 602.869 689.761 602.41 685.943Z" fill="#00BCD4"/>
<path d="M1212.87 246.495C1209.3 245.065 1207.55 241 1209.19 237.522C1216.81 221.365 1228.07 207.184 1242.07 196.088C1245.09 193.7 1249.44 194.485 1251.65 197.637C1253.85 200.79 1253.06 205.113 1250.07 207.526C1238.26 217.037 1228.72 229.057 1222.14 242.712C1220.47 246.177 1216.44 247.925 1212.87 246.495Z" fill="#00BCD4"/>
<path d="M491.181 767.454C492.979 764.054 497.206 762.738 500.492 764.736C522.689 778.235 539.721 798.801 548.847 823.124C550.198 826.725 548.117 830.632 544.442 831.765C540.767 832.898 536.891 830.826 535.511 827.236C527.51 806.432 512.915 788.81 493.967 777.073C490.697 775.048 489.383 770.854 491.181 767.454Z" fill="#00BCD4"/>
<path d="M611.839 409.53C610.24 406.032 611.772 401.879 615.359 400.491C634.423 393.119 655.139 390.896 675.408 394.112C695.676 397.327 714.688 405.852 730.534 418.762C733.516 421.192 733.687 425.615 731.084 428.446C728.48 431.277 724.088 431.44 721.087 429.035C707.274 417.967 690.786 410.653 673.226 407.868C655.665 405.082 637.723 406.934 621.163 413.183C617.565 414.541 613.439 413.027 611.839 409.53Z" fill="#00BCD4"/>
<path d="M583.484 494.273C586.204 491.554 590.631 491.54 593.183 494.418C608.411 511.593 618.207 532.904 621.326 555.644C621.849 559.455 618.957 562.806 615.122 563.1C611.287 563.393 607.965 560.516 607.411 556.71C604.584 537.285 596.216 519.079 583.313 504.286C580.785 501.387 580.765 496.993 583.484 494.273Z" fill="#00BCD4"/>
<path d="M636.874 90.3649C639.594 87.6453 644.021 87.6319 646.572 90.5097C657.681 103.039 665.967 117.846 670.828 133.927C675.689 150.008 676.994 166.925 674.685 183.51C674.155 187.319 670.462 189.76 666.692 189.003C662.921 188.245 660.503 184.575 661.002 180.762C662.877 166.433 661.693 151.84 657.496 137.957C653.299 124.073 646.202 111.269 636.703 100.377C634.175 97.4789 634.155 93.0844 636.874 90.3649Z" fill="#00BCD4"/>
<path d="M179.82 822.187C178.866 825.913 175.064 828.18 171.402 827.004C152.139 820.818 134.825 809.702 121.183 794.762C118.589 791.922 119.068 787.521 122.058 785.102C125.049 782.684 129.417 783.166 132.034 785.985C143.761 798.618 158.498 808.08 174.866 813.484C178.518 814.69 180.774 818.461 179.82 822.187Z" fill="#00BCD4"/>
<path d="M281.172 754.802C285.018 754.802 288.158 757.923 287.927 761.762C286.825 780.116 281.376 797.948 272.032 813.783C270.078 817.096 265.73 817.929 262.541 815.779C259.352 813.63 258.531 809.313 260.459 805.984C268.284 792.471 272.907 777.34 273.971 761.761C274.233 757.924 277.326 754.802 281.172 754.802Z" fill="#00BCD4"/>
<path d="M83.8109 422.798C81.927 426.151 77.6677 427.359 74.4336 425.278C52.588 411.218 36.0853 390.225 27.5816 365.677C26.3226 362.043 28.5024 358.19 32.2055 357.151C35.9086 356.112 39.73 358.282 41.0187 361.906C48.4866 382.907 62.6275 400.895 81.271 413.111C84.488 415.219 85.6948 419.445 83.8109 422.798Z" fill="#00BCD4"/>
<path d="M840.388 250.692C841.239 254.442 838.891 258.195 835.096 258.82C815.538 262.042 795.438 260.206 776.727 253.433C758.016 246.66 741.398 235.204 728.434 220.21C725.918 217.301 726.516 212.914 729.571 210.578C732.626 208.241 736.98 208.842 739.519 211.73C750.846 224.617 765.265 234.472 781.467 240.337C797.67 246.202 815.056 247.86 832.007 245.21C835.807 244.616 839.536 246.941 840.388 250.692Z" fill="#00BCD4"/>
<path d="M168.521 281.529C171.914 283.338 173.216 287.57 171.206 290.848C163.297 303.75 152.929 315 140.668 323.946C128.408 332.892 114.531 339.333 99.8319 342.928C96.096 343.842 92.4639 341.311 91.7757 337.527C91.0876 333.743 93.6053 330.142 97.3336 329.197C109.968 325.997 121.895 320.402 132.459 312.695C143.022 304.987 151.989 295.335 158.892 284.28C160.929 281.017 165.127 279.719 168.521 281.529Z" fill="#00BCD4"/>
<path d="M172.183 225.867C171.45 229.643 167.789 232.131 164.064 231.173C149.408 227.405 135.608 220.802 123.453 211.712C111.299 202.623 101.063 191.252 93.3064 178.259C91.3349 174.957 92.6861 170.741 96.1007 168.971C99.5153 167.201 103.698 168.549 105.696 171.835C112.469 182.971 121.322 192.727 131.794 200.558C142.266 208.39 154.127 214.124 166.723 217.472C170.44 218.46 172.916 222.091 172.183 225.867Z" fill="#00BCD4"/>
<path d="M107.006 704.005C110.4 705.815 111.701 710.046 109.691 713.325C102.957 724.31 94.4312 734.112 84.4534 742.315C74.4756 750.519 63.2111 756.99 51.1314 761.474C47.5258 762.812 43.6262 760.717 42.5063 757.038C41.3865 753.358 43.4722 749.49 47.0668 748.122C57.401 744.19 67.0431 738.599 75.6078 731.557C84.1726 724.515 91.5213 716.136 97.3774 706.756C99.4143 703.494 103.612 702.195 107.006 704.005Z" fill="#00BCD4"/>
<path d="M142.986 467.232C146.38 469.042 147.681 473.273 145.671 476.552C135.494 493.154 121.299 506.931 104.401 516.608C101.063 518.519 96.8729 517.092 95.1651 513.646C93.4573 510.2 94.881 506.042 98.2028 504.103C112.515 495.751 124.582 484.039 133.357 469.983C135.394 466.721 139.593 465.422 142.986 467.232Z" fill="#00BCD4"/>
<path d="M482.113 188.661C484.245 191.862 483.389 196.205 480.067 198.142C460.018 209.831 436.871 215.268 413.613 213.662C390.355 212.055 368.176 203.487 349.924 189.153C346.9 186.778 346.649 182.358 349.201 179.481C351.754 176.604 356.142 176.362 359.186 178.713C375.121 191.018 394.385 198.373 414.573 199.767C434.761 201.161 454.853 196.525 472.328 186.528C475.667 184.618 479.98 185.461 482.113 188.661Z" fill="#00BCD4"/>
<path d="M574.437 138.746C572.501 142.069 568.224 143.21 565.023 141.078C549.08 130.459 535.981 116.035 526.939 99.0666C517.896 82.0979 513.228 63.1819 513.303 44.0263C513.318 40.1803 516.651 37.2663 520.489 37.512C524.327 37.7577 527.215 41.0705 527.231 44.9165C527.301 61.4876 531.404 77.8307 539.23 92.5164C547.056 107.202 558.334 119.721 572.051 129.021C575.234 131.179 576.374 135.423 574.437 138.746Z" fill="#00BCD4"/>
<path d="M440.576 455.328C438.626 452.013 439.724 447.725 443.15 445.977C461.972 436.375 483.103 432.073 504.266 433.604C525.428 435.135 545.72 442.433 562.965 454.644C566.103 456.866 566.573 461.268 564.166 464.268C561.759 467.268 557.389 467.727 554.232 465.53C539.206 455.073 521.605 448.822 503.261 447.495C484.917 446.169 466.6 449.822 450.225 458.007C446.785 459.727 442.526 458.644 440.576 455.328Z" fill="#00BCD4"/>
<path d="M261.223 642.241C261.788 638.436 265.336 635.789 269.1 636.581C292.487 641.504 313.847 653.544 330.197 671.131C346.547 688.718 357 710.897 360.207 734.581C360.723 738.392 357.825 741.738 353.989 742.025C350.154 742.312 346.837 739.429 346.29 735.622C343.338 715.092 334.194 695.885 319.996 680.614C305.799 665.343 287.309 654.824 267.048 650.386C263.291 649.563 260.658 646.045 261.223 642.241Z" fill="#00BCD4"/>
<path d="M1052.64 202.02C1056.39 202.868 1058.76 206.605 1057.69 210.298C1051.81 230.591 1040.47 248.939 1024.87 263.316C1009.26 277.693 990.052 287.486 969.346 291.695C965.577 292.461 962.047 289.79 961.508 285.982C960.97 282.174 963.627 278.674 967.39 277.877C985.299 274.083 1001.91 265.535 1015.43 253.073C1028.96 240.61 1038.84 224.758 1044.08 207.219C1045.18 203.534 1048.89 201.172 1052.64 202.02Z" fill="#00BCD4"/>
<path d="M1103.13 342.809C1104.94 339.414 1109.17 338.11 1112.45 340.119C1130.47 351.152 1145.18 366.923 1154.93 385.768C1164.68 404.613 1169.06 425.728 1167.65 446.812C1167.4 450.649 1163.89 453.349 1160.07 452.864C1156.26 452.379 1153.58 448.892 1153.81 445.052C1154.87 426.777 1151.01 408.503 1142.56 392.168C1134.11 375.833 1121.42 362.123 1105.89 352.436C1102.63 350.401 1101.32 346.203 1103.13 342.809Z" fill="#00BCD4"/>
<path d="M400.176 742.65C397.456 739.93 397.443 735.503 400.321 732.951C419.759 715.716 444.429 705.497 470.361 703.94C474.2 703.709 477.322 706.849 477.322 710.695C477.322 714.541 474.2 717.634 470.363 717.896C448.126 719.414 426.986 728.17 410.189 742.821C407.29 745.349 402.895 745.37 400.176 742.65Z" fill="#00BCD4"/>
<path d="M847.026 735.687C844.307 732.968 844.294 728.541 847.171 725.989C861.021 713.709 877.609 704.918 895.547 700.353C899.275 699.405 902.93 701.902 903.654 705.679C904.377 709.456 901.893 713.081 898.173 714.06C882.968 718.063 868.889 725.523 857.039 735.859C854.141 738.386 849.746 738.407 847.026 735.687Z" fill="#00BCD4"/>
<path d="M1058.81 641.058C1058.81 644.904 1055.69 648.043 1051.85 647.813C1033.37 646.703 1015.43 641.189 999.514 631.733C996.208 629.768 995.388 625.417 997.548 622.235C999.707 619.052 1004.03 618.246 1007.35 620.184C1020.93 628.106 1036.16 632.785 1051.85 633.856C1055.69 634.118 1058.81 637.212 1058.81 641.058Z" fill="#00BCD4"/>
<path d="M1093.44 455.199C1095.77 458.262 1095.18 462.65 1091.98 464.788C1078 474.137 1062.13 480.351 1045.46 482.967C1028.79 485.582 1011.78 484.527 995.602 479.908C991.904 478.852 990.002 474.855 991.278 471.227C992.553 467.599 996.524 465.716 1000.23 466.742C1014.22 470.614 1028.91 471.465 1043.3 469.207C1057.7 466.949 1071.41 461.642 1083.55 453.671C1086.76 451.56 1091.12 452.136 1093.44 455.199Z" fill="#00BCD4"/>
<path d="M763.136 675.238C762.246 678.98 758.484 681.313 754.802 680.2C741.438 676.161 728.911 669.744 717.825 661.257C714.771 658.92 714.465 654.503 716.982 651.595C719.499 648.687 723.884 648.391 726.957 650.704C736.324 657.754 746.837 663.139 758.032 666.623C761.705 667.765 764.026 671.497 763.136 675.238Z" fill="#00BCD4"/>
<path d="M430.425 631.283C428.445 634.58 424.153 635.664 420.981 633.489C409.465 625.595 399.468 615.687 391.471 604.243C389.268 601.091 390.313 596.789 393.592 594.779C396.871 592.769 401.14 593.814 403.369 596.948C410.163 606.503 418.553 614.818 428.168 621.526C431.323 623.727 432.406 627.986 430.425 631.283Z" fill="#00BCD4"/>
<path d="M916.592 293.769C913.256 295.683 908.979 294.538 907.269 291.093C895.713 267.826 892.298 241.342 897.574 215.905C898.355 212.139 902.201 209.947 905.913 210.952C909.626 211.957 911.795 215.779 911.045 219.551C906.697 241.412 909.624 264.106 919.374 284.149C921.057 287.607 919.928 291.855 916.592 293.769Z" fill="#00BCD4"/>
<path d="M393.154 536.269C393.788 540.062 391.227 543.673 387.402 544.078C374.588 545.434 361.622 544.649 349.036 541.739C336.451 538.829 324.456 533.842 313.538 526.998C310.28 524.955 309.564 520.587 311.798 517.456C314.033 514.326 318.371 513.622 321.646 515.638C331.062 521.434 341.371 525.671 352.174 528.169C362.977 530.667 374.099 531.386 385.104 530.312C388.932 529.938 392.521 532.475 393.154 536.269Z" fill="#00BCD4"/>
<path d="M537.841 288.673C534.451 290.489 530.21 289.221 528.6 285.728C521.835 271.049 518.2 255.093 517.958 238.881C517.716 222.669 520.874 206.612 527.198 191.737C528.703 188.198 532.904 186.804 536.347 188.518C539.79 190.233 541.167 194.406 539.691 197.957C534.342 210.83 531.675 224.686 531.884 238.673C532.093 252.661 535.172 266.431 540.902 279.138C542.484 282.644 541.231 286.857 537.841 288.673Z" fill="#00BCD4"/>
<path d="M398.262 309.936C400.262 306.651 404.561 305.592 407.72 307.786C420.946 316.969 432.118 328.805 440.523 342.539C442.531 345.819 441.226 350.049 437.831 351.857C434.436 353.664 430.239 352.362 428.205 349.098C421.007 337.551 411.574 327.557 400.461 319.706C397.32 317.486 396.262 313.221 398.262 309.936Z" fill="#00BCD4"/>
<path d="M1235.45 479.785C1238.57 482.038 1239.29 486.406 1236.85 489.383C1224.14 504.917 1207.62 516.892 1188.9 524.134C1185.32 525.522 1181.39 523.481 1180.22 519.817C1179.05 516.154 1181.08 512.257 1184.65 510.84C1200.55 504.541 1214.61 494.351 1225.54 481.209C1228 478.252 1232.33 477.533 1235.45 479.785Z" fill="#00BCD4"/>
<path d="M1189.41 186.292C1190.49 189.982 1188.39 193.875 1184.64 194.737C1169.11 198.307 1152.99 198.649 1137.29 195.711C1121.58 192.773 1106.67 186.628 1093.49 177.687C1090.3 175.529 1089.74 171.137 1092.09 168.089C1094.43 165.041 1098.8 164.494 1102 166.626C1113.43 174.241 1126.3 179.486 1139.85 182.021C1153.39 184.555 1167.29 184.316 1180.7 181.347C1184.46 180.516 1188.32 182.602 1189.41 186.292Z" fill="#00BCD4"/>
<path d="M1074.34 47.7167C1073.13 44.0665 1075.1 40.1035 1078.82 39.1127C1097.54 34.1211 1117.22 33.897 1136.05 38.461C1139.79 39.3668 1141.85 43.2839 1140.72 46.9607C1139.6 50.6375 1135.7 52.6787 1131.96 51.8034C1115.91 48.0516 1099.18 48.2421 1083.21 52.3585C1079.49 53.3188 1075.55 51.3669 1074.34 47.7167Z" fill="#00BCD4"/>
<path d="M940.182 143.231C941.647 139.674 945.728 137.96 949.191 139.635C972.576 150.949 991.497 169.792 1002.91 193.131C1004.6 196.586 1002.9 200.675 999.349 202.154C995.798 203.633 991.742 201.941 990.025 198.5C980.072 178.556 963.859 162.41 943.875 152.539C940.427 150.836 938.718 146.787 940.182 143.231Z" fill="#00BCD4"/>
<path d="M1067.55 583.64C1064.83 580.921 1064.82 576.493 1067.7 573.942C1087.13 556.706 1111.8 546.487 1137.74 544.93C1141.57 544.7 1144.7 547.839 1144.7 551.685C1144.7 555.531 1141.57 558.624 1137.74 558.886C1115.5 560.404 1094.36 569.16 1077.56 583.811C1074.66 586.339 1070.27 586.36 1067.55 583.64Z" fill="#00BCD4"/>
<path d="M842.31 27.6891C845.029 24.9695 849.456 24.9561 852.007 27.8339C860.556 37.475 867.45 48.4849 872.394 60.4191C877.337 72.3533 880.247 85.0136 881.02 97.8755C881.25 101.715 878.111 104.835 874.265 104.835C870.419 104.835 867.325 101.714 867.063 97.8767C866.31 86.8451 863.769 75.9931 859.526 65.7491C855.283 55.505 849.406 46.0348 842.138 37.7016C839.61 34.8031 839.59 30.4087 842.31 27.6891Z" fill="#00BCD4"/>
<path d="M993.296 39.5375C996.633 41.4499 997.805 45.7186 995.696 48.9348C988.631 59.7098 979.811 69.247 969.588 77.1433C959.365 85.0396 947.908 91.1639 935.698 95.278C932.053 96.5061 928.219 94.2933 927.212 90.5815C926.204 86.8697 928.407 83.067 932.041 81.8092C942.491 78.193 952.298 72.8987 961.074 66.1207C969.849 59.3427 977.449 51.1908 983.588 41.9942C985.724 38.7953 989.959 37.6251 993.296 39.5375Z" fill="#00BCD4"/>
<path d="M177.269 663.665C173.443 664.053 170.005 661.264 169.847 657.422C169.075 638.621 172.887 619.912 180.953 602.912C182.602 599.437 186.857 598.216 190.227 600.07C193.596 601.924 194.801 606.151 193.181 609.639C186.444 624.144 183.207 640.031 183.732 656.015C183.859 659.859 181.096 663.277 177.269 663.665Z" fill="#00BCD4"/>
<path d="M45.446 288.288C42.046 286.49 40.7293 282.263 42.7277 278.977C49.423 267.968 57.9136 258.137 67.8622 249.897C77.8108 241.658 89.0522 235.148 101.116 230.621C104.717 229.269 108.624 231.35 109.757 235.026C110.89 238.701 108.818 242.577 105.228 243.957C94.9077 247.927 85.2856 253.552 76.746 260.624C68.2064 267.696 60.8874 276.102 55.0648 285.502C53.0395 288.772 48.846 290.085 45.446 288.288Z" fill="#00BCD4"/>
<path d="M794.736 409.483C790.909 409.871 787.471 407.082 787.313 403.239C786.247 377.282 793.926 351.707 809.114 330.631C811.363 327.51 815.769 327.077 818.749 329.508C821.729 331.94 822.151 336.314 819.929 339.453C807.046 357.642 800.466 379.557 801.198 401.833C801.325 405.677 798.562 409.096 794.736 409.483Z" fill="#00BCD4"/>
<path d="M1024.36 325.302C1028.05 324.236 1031.94 326.365 1032.78 330.118C1036.9 348.477 1036.49 367.566 1031.6 385.735C1030.6 389.448 1026.63 391.41 1022.98 390.189C1019.33 388.967 1017.39 385.025 1018.36 381.303C1022.4 365.827 1022.74 349.617 1019.37 333.984C1018.56 330.225 1020.66 326.368 1024.36 325.302Z" fill="#00BCD4"/>
<path d="M1088.99 260.363C1088.99 256.517 1092.11 253.377 1095.95 253.608C1114.73 254.736 1132.96 260.415 1149.06 270.154C1152.35 272.145 1153.13 276.501 1150.95 279.667C1148.76 282.832 1144.44 283.605 1141.13 281.642C1127.38 273.476 1111.9 268.654 1095.94 267.564C1092.11 267.302 1088.99 264.209 1088.99 260.363Z" fill="#00BCD4"/>
<path d="M1101.38 778.947C1104.85 780.616 1106.32 784.791 1104.45 788.149C1095.28 804.58 1082.25 818.537 1066.49 828.814C1063.26 830.914 1059 829.731 1057.09 826.389C1055.19 823.047 1056.37 818.814 1059.58 816.687C1072.9 807.843 1083.97 795.991 1091.87 782.09C1093.78 778.747 1097.92 777.277 1101.38 778.947Z" fill="#00BCD4"/>
<path d="M710.07 527.856C707.35 530.576 702.923 530.589 700.372 527.712C689.671 515.643 681.602 501.475 676.682 486.115C675.509 482.452 677.779 478.652 681.506 477.7C685.232 476.749 689.001 479.008 690.205 482.661C694.468 495.608 701.282 507.571 710.241 517.844C712.769 520.743 712.789 525.137 710.07 527.856Z" fill="#00BCD4"/>
<path d="M314.226 155.3C310.4 155.688 306.962 152.899 306.804 149.057C306.19 134.092 308.477 119.127 313.564 104.993C318.651 90.8599 326.425 77.8694 336.435 66.7284C339.005 63.8675 343.432 63.9099 346.133 66.6473C348.835 69.3846 348.786 73.7788 346.239 76.6607C337.698 86.3246 331.051 97.5354 326.669 109.71C322.287 121.884 320.266 134.76 320.689 147.65C320.815 151.494 318.053 154.912 314.226 155.3Z" fill="#00BCD4"/>
<path d="M347.27 541.402C344.035 539.321 343.083 534.998 345.355 531.894C355.115 518.556 367.629 507.433 382.078 499.298C396.527 491.163 412.527 486.232 428.993 484.804C432.824 484.471 436.027 487.527 436.129 491.372C436.231 495.217 433.193 498.391 429.364 498.755C415.167 500.103 401.382 504.413 388.911 511.435C376.44 518.456 365.606 528.007 357.091 539.447C354.794 542.532 350.504 543.483 347.27 541.402Z" fill="#FF4081"/>
<path d="M22.3468 223.224C18.5007 223.224 15.3611 220.103 15.5917 216.264C16.544 200.411 20.7416 184.897 27.952 170.691C35.1625 156.486 45.2083 143.939 57.4425 133.813C60.4053 131.361 64.7776 132.053 67.0478 135.158C69.3181 138.262 68.6242 142.601 65.6815 145.078C55.2056 153.894 46.5902 164.744 40.3715 176.995C34.1529 189.247 30.4808 202.605 29.548 216.265C29.286 220.102 26.1928 223.224 22.3468 223.224Z" fill="#FF4081"/>
<path d="M283.38 614.768C281.453 618.096 277.179 619.25 273.972 617.127C260.73 608.36 249.406 596.954 240.725 583.596C232.044 570.239 226.22 555.259 223.586 539.597C222.948 535.804 225.738 532.367 229.562 531.958C233.386 531.549 236.794 534.324 237.463 538.111C239.844 551.595 244.917 564.486 252.404 576.007C259.891 587.527 269.611 597.398 280.966 605.049C284.156 607.199 285.307 611.44 283.38 614.768Z" fill="#FF4081"/>
<path d="M476.537 592.736C477.696 589.069 481.618 587.016 485.209 588.392C502.666 595.085 518.284 605.91 530.698 619.981C543.112 634.053 551.907 650.897 556.371 669.053C557.289 672.788 554.763 676.423 550.98 677.116C547.197 677.809 543.592 675.295 542.643 671.568C538.654 655.9 530.994 641.369 520.254 629.196C509.514 617.022 496.051 607.61 481.002 601.699C477.422 600.293 475.378 596.404 476.537 592.736Z" fill="#FF4081"/>
<path d="M515.208 840.729C511.388 840.281 508.634 836.815 509.311 833.029C512.664 814.271 520.593 796.589 532.439 781.572C544.285 766.555 559.636 754.727 577.097 747.099C580.622 745.559 584.634 747.43 585.959 751.041C587.285 754.651 585.421 758.631 581.909 760.199C566.859 766.921 553.626 777.203 543.374 790.198C533.123 803.193 526.205 818.457 523.171 834.658C522.464 838.439 519.027 841.178 515.208 840.729Z" fill="#FF4081"/>
<path d="M8.58945 597.194C7.32709 593.561 9.24442 589.571 12.9466 588.529C29.0142 584.006 45.897 582.994 62.4403 585.597C78.9836 588.2 94.7398 594.348 108.642 603.587C111.845 605.716 112.444 610.102 110.127 613.172C107.81 616.241 103.455 616.83 100.235 614.727C88.1727 606.852 74.5573 601.603 60.2754 599.355C45.9934 597.108 31.424 597.922 17.5263 601.713C13.8157 602.725 9.85183 600.827 8.58945 597.194Z" fill="#FF4081"/>
<path d="M60.6483 480.888C60.6483 477.042 63.7691 473.903 67.6083 474.133C88.7001 475.4 109.095 482.406 126.559 494.455C144.024 506.504 157.814 523.083 166.487 542.352C168.065 545.859 166.238 549.891 162.642 551.256C159.047 552.622 155.047 550.801 153.44 547.307C145.79 530.676 133.789 516.364 118.65 505.919C103.512 495.475 85.8712 489.337 67.6071 488.09C63.77 487.828 60.6483 484.734 60.6483 480.888Z" fill="#FF4081"/>
<path d="M376.299 655.298C379.284 657.723 379.753 662.125 377.153 664.96C365.309 677.874 350.671 687.962 334.321 694.431C317.971 700.9 300.393 703.559 282.919 702.246C279.084 701.958 276.414 698.427 276.932 694.615C277.45 690.804 280.959 688.16 284.797 688.416C299.899 689.427 315.068 687.07 329.196 681.48C343.325 675.89 356 667.23 366.322 656.159C368.944 653.346 373.313 652.873 376.299 655.298Z" fill="#FF4081"/>
<path d="M458.752 569.097C454.905 569.097 451.766 565.976 451.996 562.137C452.816 548.494 456.039 535.102 461.517 522.58C463.058 519.057 467.274 517.706 470.699 519.456C474.124 521.206 475.458 525.393 473.945 528.929C469.436 539.472 466.734 550.699 465.953 562.138C465.691 565.975 462.598 569.097 458.752 569.097Z" fill="#FF4081"/>
<path d="M263.145 366.601C265.864 363.882 270.291 363.868 272.843 366.746C286.674 382.345 296.079 401.419 300.004 421.981C303.93 442.543 302.214 463.74 295.103 483.338C293.791 486.953 289.67 488.572 286.14 487.045C282.61 485.519 281.01 481.426 282.292 477.8C288.313 460.775 289.726 442.413 286.324 424.593C282.922 406.773 274.843 390.224 262.973 376.614C260.445 373.715 260.425 369.321 263.145 366.601Z" fill="#FF4081"/>
<path d="M166.885 747.295C164.165 744.575 164.153 740.148 167.03 737.596C186.468 720.36 211.138 710.141 237.07 708.584C240.91 708.354 244.031 711.493 244.031 715.34C244.031 719.186 240.909 722.279 237.072 722.541C214.835 724.058 193.695 732.815 176.898 747.466C173.999 749.994 169.605 750.014 166.885 747.295Z" fill="#FF4081"/>
<path d="M393.284 829.753C391.304 833.05 387.012 834.135 383.84 831.96C372.324 824.066 362.327 814.158 354.33 802.714C352.127 799.561 353.172 795.26 356.451 793.25C359.73 791.24 363.999 792.285 366.228 795.419C373.022 804.974 381.412 813.289 391.028 819.997C394.182 822.198 395.265 826.457 393.284 829.753Z" fill="#FF4081"/>
<path d="M207.831 629.623C209.05 633.271 207.087 637.238 203.372 638.237C189.89 641.862 175.863 643.026 161.967 641.671C158.139 641.298 155.549 637.708 156.151 633.91C156.753 630.111 160.32 627.545 164.151 627.887C175.829 628.929 187.601 627.953 198.947 625.001C202.67 624.032 206.611 625.976 207.831 629.623Z" fill="#FF4081"/>
<path d="M25.2113 699.707C27.9309 696.987 32.3576 696.974 34.9092 699.851C45.9573 712.312 54.2135 727.026 59.0855 743.007C63.9576 758.988 65.3142 775.805 63.0964 792.309C62.5842 796.121 58.9029 798.58 55.1287 797.84C51.3545 797.1 48.9196 793.442 49.4006 789.626C51.1978 775.368 49.969 760.864 45.7631 747.068C41.5572 733.272 34.4854 720.549 25.0398 709.719C22.5119 706.821 22.4917 702.426 25.2113 699.707Z" fill="#FF4081"/>
<path d="M222.304 410.552C223.912 414.046 222.388 418.202 218.804 419.597C198.7 427.421 176.808 429.486 155.595 425.561C151.814 424.861 149.54 421.063 150.465 417.33C151.39 413.596 155.164 411.345 158.952 412.014C177.087 415.217 195.757 413.456 212.973 406.917C216.569 405.552 220.697 407.058 222.304 410.552Z" fill="#FF4081"/>
<path d="M312.555 341.299C309.119 339.57 307.718 335.37 309.651 332.045C319.978 314.272 334.865 299.521 352.826 289.353C370.786 279.186 391.095 274.012 411.649 274.303C415.494 274.358 418.374 277.72 418.089 281.556C417.804 285.391 414.462 288.244 410.616 288.221C392.814 288.115 375.249 292.664 359.687 301.474C344.125 310.283 331.185 323.003 322.116 338.321C320.157 341.631 315.99 343.028 312.555 341.299Z" fill="#FF4081"/>
<path d="M647.693 607.88C645.352 604.828 645.917 600.437 649.104 598.284C666.851 586.289 687.615 579.414 709.105 578.489C730.596 577.564 751.874 582.631 770.585 593.057C773.945 594.929 774.886 599.254 772.816 602.496C770.746 605.737 766.45 606.664 763.075 604.82C746.786 595.918 728.336 591.602 709.704 592.404C691.072 593.205 673.061 599.09 657.597 609.358C654.393 611.486 650.034 610.931 647.693 607.88Z" fill="#FF4081"/>
<path d="M527.695 500.071C526.402 503.694 522.407 505.601 518.869 504.094C498.018 495.208 480.173 480.387 467.602 461.405C455.031 442.423 448.349 420.209 448.306 397.543C448.298 393.697 451.614 390.764 455.453 390.987C459.293 391.211 462.2 394.507 462.239 398.352C462.437 418.008 468.307 437.244 479.214 453.715C490.122 470.185 505.542 483.096 523.561 490.95C527.087 492.487 528.987 496.449 527.695 500.071Z" fill="#FF4081"/>
<path d="M688.56 433.302C684.714 433.302 681.575 430.181 681.805 426.342C682.758 410.49 686.955 394.975 694.166 380.769C701.376 366.564 711.422 354.017 723.656 343.891C726.619 341.439 730.991 342.131 733.262 345.236C735.532 348.34 734.838 352.68 731.895 355.156C721.419 363.972 712.804 374.822 706.585 387.073C700.367 399.325 696.695 412.683 695.762 426.343C695.5 430.181 692.407 433.302 688.56 433.302Z" fill="#FF4081"/>
<path d="M364.671 86.5384C368.064 88.3483 369.366 92.5793 367.356 95.8582C360.621 106.843 352.096 116.645 342.118 124.849C332.14 133.053 320.876 139.523 308.796 144.007C305.19 145.345 301.291 143.25 300.171 139.571C299.051 135.891 301.137 132.023 304.731 130.656C315.066 126.723 324.708 121.132 333.272 114.09C341.837 107.048 349.186 98.6687 355.042 89.2895C357.079 86.0271 361.277 84.7284 364.671 86.5384Z" fill="#FF4081"/>
<path d="M838.284 102.515C834.438 102.515 831.299 99.3943 831.529 95.5552C832.302 82.6933 835.212 70.0329 840.156 58.0987C845.099 46.1646 851.993 35.1546 860.542 25.5135C863.093 22.6357 867.52 22.6491 870.24 25.3687C872.959 28.0883 872.939 32.4827 870.411 35.3812C863.143 43.7144 857.266 53.1846 853.023 63.4287C848.78 73.6727 846.239 84.5247 845.486 95.5564C845.224 99.3935 842.131 102.515 838.284 102.515Z" fill="#FF4081"/>
<path d="M779.458 826.585C777.588 823.224 778.791 818.963 782.258 817.299C805.678 806.056 832.205 802.997 857.57 808.614C861.325 809.445 863.465 813.321 862.41 817.019C861.355 820.718 857.504 822.836 853.743 822.035C831.942 817.394 809.211 820.016 789.039 829.496C785.559 831.132 781.327 829.946 779.458 826.585Z" fill="#FF4081"/>
<path d="M615.026 486.565C618.448 488.32 619.818 492.53 617.861 495.841C606.182 515.601 588.899 531.459 568.21 541.399C564.743 543.064 560.666 541.339 559.211 537.778C557.757 534.218 559.477 530.174 562.929 528.48C580.553 519.835 595.317 506.288 605.443 489.471C607.427 486.177 611.604 484.81 615.026 486.565Z" fill="#FF4081"/>
<path d="M1069.8 202.874C1072.52 205.594 1072.53 210.02 1069.65 212.572C1056.4 224.318 1040.62 232.9 1023.49 237.621C1006.36 242.342 988.41 243.059 971.015 239.759C967.237 239.042 964.98 235.233 965.922 231.504C966.865 227.775 970.649 225.541 974.433 226.227C989.484 228.956 1004.99 228.274 1019.79 224.194C1034.59 220.113 1048.26 212.757 1059.78 202.703C1062.68 200.175 1067.08 200.154 1069.8 202.874Z" fill="#FF4081"/>
<path d="M197.949 167.143C199.148 163.488 203.092 161.478 206.668 162.893C226.314 170.671 243.51 183.684 256.349 200.576C269.189 217.468 277.125 237.519 279.36 258.53C279.767 262.355 276.774 265.617 272.932 265.794C269.09 265.97 265.857 262.994 265.418 259.173C263.333 240.986 256.39 223.646 245.261 209.004C234.131 194.362 219.283 183.031 202.317 176.154C198.753 174.709 196.75 170.797 197.949 167.143Z" fill="#FF4081"/>
<path d="M574.451 49.975C578.202 50.8233 580.576 54.5604 579.505 58.2542C571.621 85.428 554.047 108.876 529.984 124.062C505.922 139.249 477.194 145.025 449.272 140.45C445.477 139.828 443.125 136.077 443.973 132.326C444.821 128.574 448.549 126.246 452.349 126.837C476.661 130.617 501.613 125.499 522.551 112.284C543.488 99.0694 558.844 78.7469 565.892 55.1746C566.994 51.4897 570.7 49.1267 574.451 49.975Z" fill="#FF4081"/>
<path d="M195.284 362.501C195.284 366.347 192.163 369.487 188.324 369.256C167.061 367.979 146.509 360.869 128.956 348.645C111.402 336.421 97.6058 319.611 89.0331 300.111C87.4853 296.59 89.3476 292.574 92.9549 291.24C96.5622 289.906 100.546 291.761 102.123 295.269C109.689 312.105 121.697 326.618 136.915 337.216C152.133 347.813 169.91 354.042 188.325 355.3C192.162 355.562 195.284 358.655 195.284 362.501Z" fill="#FF4081"/>
<path d="M1006.88 563.806C1004.97 560.469 1006.12 556.193 1009.57 554.484C1027.05 545.813 1046.48 541.674 1066.05 542.506C1085.63 543.337 1104.64 549.108 1121.33 559.231C1124.61 561.226 1125.39 565.584 1123.21 568.747C1121.02 571.909 1116.69 572.677 1113.39 570.709C1098.87 562.068 1082.41 557.141 1065.46 556.421C1048.52 555.701 1031.7 559.214 1016.5 566.594C1013.04 568.274 1008.8 567.143 1006.88 563.806Z" fill="#FF4081"/>
<path d="M938.896 439.956C942.647 440.804 945.021 444.54 943.949 448.234C938.061 468.527 926.73 486.874 911.125 501.251C895.521 515.628 876.309 525.422 855.602 529.631C851.833 530.397 848.303 527.725 847.764 523.917C847.226 520.109 849.883 516.609 853.646 515.812C871.555 512.019 888.162 503.47 901.688 491.008C915.214 478.546 925.092 462.694 930.337 445.155C931.439 441.47 935.144 439.107 938.896 439.956Z" fill="#FF4081"/>
<path d="M1223.26 45.3344C1227.01 46.1827 1229.38 49.9192 1228.31 53.6129C1222.42 73.9059 1211.09 92.2532 1195.48 106.63C1179.88 121.007 1160.67 130.801 1139.96 135.01C1136.19 135.776 1132.66 133.104 1132.12 129.296C1131.59 125.488 1134.24 121.988 1138.01 121.191C1155.91 117.398 1172.52 108.849 1186.05 96.387C1199.57 83.9249 1209.45 68.0728 1214.7 50.5336C1215.8 46.8488 1219.5 44.4861 1223.26 45.3344Z" fill="#FF4081"/>
<path d="M1193.08 381.922C1196.83 382.771 1199.2 386.507 1198.13 390.201C1194.54 402.575 1188.91 414.282 1181.46 424.832C1174 435.382 1164.85 444.6 1154.39 452.118C1151.26 454.362 1146.95 453.373 1144.89 450.121C1142.84 446.868 1143.83 442.586 1146.94 440.317C1155.86 433.792 1163.68 425.851 1170.08 416.795C1176.48 407.739 1181.35 397.715 1184.52 387.121C1185.62 383.436 1189.33 381.074 1193.08 381.922Z" fill="#FF4081"/>
<path d="M1080.86 729.267C1077.01 729.267 1073.87 726.146 1074.11 722.307C1075.37 701.215 1082.38 680.82 1094.43 663.356C1106.48 645.891 1123.06 632.101 1142.32 623.429C1145.83 621.85 1149.86 623.677 1151.23 627.273C1152.59 630.868 1150.77 634.868 1147.28 636.475C1130.65 644.125 1116.34 656.127 1105.89 671.265C1095.45 686.404 1089.31 704.044 1088.06 722.308C1087.8 726.145 1084.71 729.267 1080.86 729.267Z" fill="#FF4081"/>
<path d="M600.894 234.287C603.614 231.567 608.041 231.554 610.592 234.432C621.64 246.892 629.896 261.606 634.768 277.587C639.64 293.568 640.997 310.385 638.779 326.889C638.267 330.701 634.586 333.16 630.812 332.42C627.037 331.68 624.603 328.022 625.084 324.206C626.881 309.948 625.652 295.444 621.446 281.648C617.24 267.852 610.168 255.129 600.723 244.299C598.195 241.401 598.175 237.006 600.894 234.287Z" fill="#FF4081"/>
<path d="M732.048 35.8141C734.767 33.0945 739.194 33.0811 741.746 35.9589C752.794 48.4191 761.05 63.133 765.922 79.114C770.794 95.0949 772.151 111.912 769.933 128.417C769.421 132.229 765.739 134.687 761.965 133.947C758.191 133.207 755.756 129.549 756.237 125.733C758.034 111.476 756.805 96.9714 752.6 83.1756C748.394 69.3797 741.322 56.6568 731.876 45.8267C729.348 42.9281 729.328 38.5337 732.048 35.8141Z" fill="#FF4081"/>
<path d="M429.118 183.218C431.837 180.499 436.264 180.485 438.816 183.363C449.864 195.823 458.12 210.537 462.992 226.518C467.864 242.499 469.221 259.317 467.003 275.821C466.491 279.633 462.809 282.091 459.035 281.352C455.261 280.612 452.826 276.953 453.307 273.138C455.104 258.88 453.876 244.376 449.67 230.58C445.464 216.784 438.392 204.061 428.946 193.231C426.418 190.332 426.398 185.938 429.118 183.218Z" fill="#FF4081"/>
<path d="M916.202 784.63C914.203 781.344 915.236 777.04 918.636 775.241C932.232 768.047 947.145 763.616 962.511 762.232C977.878 760.848 993.342 762.544 1008 767.194C1011.67 768.357 1013.46 772.407 1012.08 775.997C1010.7 779.587 1006.67 781.354 1003 780.221C990.331 776.318 977.005 774.911 963.76 776.104C950.516 777.296 937.655 781.061 925.89 787.164C922.476 788.935 918.202 787.915 916.202 784.63Z" fill="#FF4081"/>
<path d="M822.329 164.23C821.071 160.595 822.994 156.607 826.697 155.569C851.713 148.558 878.368 150.146 902.374 160.075C905.928 161.545 907.365 165.733 905.684 169.193C904.004 172.652 899.844 174.071 896.278 172.63C875.612 164.279 852.772 162.919 831.261 168.758C827.549 169.766 823.587 167.864 822.329 164.23Z" fill="#FF4081"/>
<path d="M743.111 292.862C743.111 296.708 739.99 299.848 736.151 299.617C716.111 298.414 696.722 292.031 679.887 281.095C676.661 278.999 676.016 274.62 678.301 271.526C680.585 268.432 684.934 267.798 688.177 269.867C702.593 279.065 719.091 284.496 736.152 285.661C739.989 285.923 743.111 289.016 743.111 292.862Z" fill="#FF4081"/>
<path d="M267.934 316.748C265.954 320.044 261.662 321.129 258.49 318.954C246.974 311.06 236.977 301.152 228.979 289.708C226.776 286.556 227.822 282.254 231.101 280.244C234.38 278.234 238.649 279.279 240.877 282.413C247.672 291.968 256.061 300.283 265.677 306.991C268.832 309.192 269.915 313.451 267.934 316.748Z" fill="#FF4081"/>
<path d="M994.502 706.724C992.521 710.021 988.228 711.105 985.056 708.93C963.628 694.242 947.743 672.778 939.956 647.994C938.803 644.324 941.094 640.536 944.826 639.605C948.557 638.674 952.314 640.955 953.497 644.615C960.351 665.823 973.964 684.215 992.244 696.968C995.399 699.168 996.482 703.427 994.502 706.724Z" fill="#FF4081"/>
<path d="M800.673 500.13C798.692 503.427 794.401 504.512 791.228 502.337C779.713 494.443 769.716 484.535 761.718 473.091C759.515 469.938 760.561 465.637 763.84 463.627C767.119 461.617 771.387 462.661 773.616 465.796C780.411 475.351 788.8 483.666 798.416 490.374C801.57 492.575 802.654 496.833 800.673 500.13Z" fill="#FF4081"/>
<path d="M571.335 368.304C571.335 372.15 568.214 375.289 564.375 375.059C549.086 374.14 534.106 370.203 520.308 363.449C506.51 356.695 494.211 347.28 484.107 335.769C481.57 332.879 482.135 328.488 485.173 326.129C488.21 323.77 492.568 324.337 495.128 327.207C503.914 337.052 514.54 345.119 526.431 350.94C538.322 356.76 551.211 360.203 564.376 361.102C568.213 361.364 571.335 364.458 571.335 368.304Z" fill="#FF4081"/>
<path d="M877.203 378.207C874.484 375.487 874.471 371.06 877.349 368.508C896.786 351.272 921.457 341.053 947.389 339.496C951.228 339.266 954.349 342.406 954.349 346.252C954.349 350.098 951.227 353.191 947.39 353.453C925.153 354.971 904.013 363.727 887.216 378.378C884.318 380.906 879.923 380.926 877.203 378.207Z" fill="#FF4081"/>
<path d="M1207.91 286.515C1210.63 283.796 1215.06 283.782 1217.61 286.66C1228.35 298.773 1236.46 313.02 1241.38 328.497C1246.3 343.974 1247.91 360.286 1246.13 376.377C1245.71 380.2 1242.09 382.745 1238.3 382.096C1234.51 381.446 1231.99 377.846 1232.38 374.02C1233.8 360.13 1232.35 346.07 1228.11 332.717C1223.86 319.363 1216.92 307.051 1207.74 296.528C1205.22 293.629 1205.2 289.235 1207.91 286.515Z" fill="#FF4081"/>
<path d="M920.492 41.2699C919.871 37.4743 922.445 33.872 926.271 33.4799C952.115 30.8311 978.111 36.9342 1000.08 50.8069C1003.33 52.8607 1004.03 57.232 1001.78 60.3549C999.539 63.4777 995.199 64.1668 991.93 62.1397C972.988 50.3919 950.713 45.1623 928.522 47.2534C924.693 47.6142 921.113 45.0655 920.492 41.2699Z" fill="#FF4081"/>
<path d="M998.458 340.405C999.563 336.721 1003.45 334.61 1007.07 335.934C1021.28 341.143 1034.35 349.09 1045.54 359.346C1056.73 369.603 1065.78 381.939 1072.21 395.643C1073.84 399.125 1072.08 403.185 1068.5 404.606C1064.93 406.026 1060.9 404.268 1059.24 400.799C1053.61 389.042 1045.77 378.451 1036.13 369.614C1026.49 360.777 1015.26 353.888 1003.06 349.302C999.455 347.949 997.354 344.089 998.458 340.405Z" fill="#FF4081"/>
<path d="M610.701 139.698C611.27 135.895 614.822 133.252 618.585 134.048C644.001 139.427 666.886 153.186 683.558 173.11C686.026 176.06 685.358 180.436 682.266 182.723C679.173 185.01 674.83 184.339 672.338 181.41C657.895 164.433 638.285 152.644 616.517 147.85C612.761 147.023 610.131 143.502 610.701 139.698Z" fill="#FF4081"/>
<path d="M228.047 107.078C229.407 110.676 227.597 114.716 223.924 115.857C206.497 121.273 188.003 122.513 169.949 119.431C151.895 116.349 134.86 109.044 120.216 98.1528C117.13 95.8575 116.763 91.4459 119.24 88.503C121.716 85.56 126.096 85.2029 129.2 87.4728C141.935 96.783 156.681 103.036 172.293 105.702C187.905 108.367 203.89 107.36 218.992 102.802C222.674 101.69 226.688 103.48 228.047 107.078Z" fill="#FF4081"/>
<path d="M784.178 734.847C785.749 738.357 784.182 742.498 780.583 743.855C762.585 750.642 743.145 752.863 724.012 750.265C704.88 747.667 686.736 740.343 671.199 729.002C668.093 726.734 667.687 722.326 670.136 719.361C672.586 716.396 676.963 716 680.088 718.242C693.609 727.943 709.327 734.215 725.886 736.464C742.446 738.712 759.267 736.859 774.886 731.115C778.495 729.787 782.608 731.336 784.178 734.847Z" fill="#FF4081"/>
<path d="M784.277 199.466C786.997 196.747 791.423 196.733 793.975 199.611C802.523 209.252 809.418 220.262 814.361 232.196C819.304 244.131 822.215 256.791 822.987 269.653C823.218 273.492 820.078 276.613 816.232 276.613C812.386 276.613 809.293 273.491 809.031 269.654C808.278 258.622 805.737 247.77 801.493 237.526C797.25 227.282 791.373 217.812 784.106 209.479C781.578 206.58 781.558 202.186 784.277 199.466Z" fill="#FF4081"/>
<path d="M1051.5 147.311C1048.05 149.013 1043.85 147.603 1042.36 144.058C1032.28 120.114 1030.53 93.4683 1037.39 68.4103C1038.4 64.7005 1042.38 62.753 1046.02 63.9884C1049.66 65.2239 1051.59 69.1741 1050.6 72.892C1044.9 94.4383 1046.4 117.27 1054.88 137.884C1056.34 141.441 1054.95 145.609 1051.5 147.311Z" fill="#FF4081"/>
<path d="M894.703 590.01C898.41 591.034 900.606 594.878 899.362 598.517C893.243 616.417 882.828 632.586 868.986 645.583C855.144 658.58 838.353 667.958 820.104 672.94C816.393 673.953 812.695 671.52 811.907 667.755C811.118 663.991 813.539 660.324 817.241 659.28C832.989 654.843 847.475 646.676 859.452 635.429C871.429 624.183 880.491 610.239 885.909 594.801C887.183 591.172 890.996 588.986 894.703 590.01Z" fill="#FF4081"/>
<path d="M1225.94 805.868C1225.94 809.714 1222.82 812.854 1218.98 812.623C1193.05 811.066 1168.38 800.848 1148.94 783.612C1146.06 781.06 1146.08 776.633 1148.8 773.913C1151.52 771.194 1155.91 771.214 1158.81 773.742C1175.61 788.393 1196.75 797.149 1218.98 798.667C1222.82 798.929 1225.94 802.022 1225.94 805.868Z" fill="#FF4081"/>
<path d="M1202.98 631.608C1206.18 629.474 1210.52 630.329 1212.46 633.652C1219.78 646.205 1224.68 660.022 1226.9 674.383C1227.49 678.184 1224.65 681.584 1220.82 681.943C1216.99 682.302 1213.62 679.482 1213 675.687C1211.04 663.62 1206.92 652.003 1200.84 641.392C1198.93 638.054 1199.78 633.741 1202.98 631.608Z" fill="#FF4081"/>
<path d="M1178.55 571.81C1177.7 568.06 1180.05 564.306 1183.84 563.68C1209.47 559.452 1235.8 563.949 1258.57 576.449C1261.94 578.3 1262.91 582.62 1260.86 585.874C1258.81 589.129 1254.52 590.083 1251.14 588.26C1231.51 577.696 1208.95 573.842 1186.93 577.29C1183.13 577.885 1179.4 575.56 1178.55 571.81Z" fill="#FF4081"/>
<path d="M602.814 42.5307C601.428 38.9431 603.208 34.8897 606.872 33.7212C624.799 28.0044 643.85 26.732 662.378 30.014C666.165 30.6849 668.468 34.4656 667.571 38.2057C666.675 41.9457 662.918 44.2258 659.125 43.5859C643.355 40.9253 627.177 42.0058 611.901 46.74C608.227 47.8785 604.201 46.1183 602.814 42.5307Z" fill="#FF4081"/>
<path d="M1095.28 283.182C1091.73 281.94 1089.78 278.109 1091.06 274.574C1097.19 257.7 1106.69 242.466 1118.9 229.939C1121.82 226.941 1126.67 227.366 1129.26 230.655C1131.61 233.649 1131.22 237.939 1128.57 240.667C1118.12 251.377 1109.93 264.338 1104.52 278.689C1103.12 282.413 1099.04 284.497 1095.28 283.182Z" fill="#FF4081"/>
</g>
<defs>
<clipPath id="clip0">
<rect width="1280" height="850" fill="white"/>
</clipPath>
</defs>
</svg>
