<svg width="48" height="48" xmlns="http://www.w3.org/2000/svg">
    <defs>
        <linearGradient x1="69.308%" y1="13.086%" x2="11.137%" y2="100.996%" id="a">
            <stop stop-color="#262626" stop-opacity=".1" offset="0%"/>
            <stop stop-color="#262626" stop-opacity="0" offset="100%"/>
        </linearGradient>
        <linearGradient x1="0%" y1="50%" y2="50%" id="b">
            <stop stop-color="#262626" stop-opacity=".1" offset="0%"/>
            <stop stop-color="#262626" stop-opacity="0" offset="100%"/>
        </linearGradient>
        <linearGradient x1="70.934%" y1="65.756%" x2="29.066%" y2="35.799%" id="c">
            <stop stop-color="#262626" stop-opacity=".1" offset="0%"/>
            <stop stop-color="#262626" stop-opacity="0" offset="100%"/>
        </linearGradient>
        <linearGradient x1="31.179%" y1="20.358%" x2="69.716%" y2="100.652%" id="d">
            <stop stop-color="#FFF" stop-opacity=".1" offset="0%"/>
            <stop stop-color="#FFF" stop-opacity="0" offset="100%"/>
        </linearGradient>
    </defs>
    <g fill="none" fill-rule="evenodd">
        <path d="M0 0h48v48H0z"/>
        <path d="M24 0l11 7v10h5v6h-4.5l4 25h-31l4-25H8v-6h5V7.06L24 0zm5.87 26.5l-12.432 4.525L16 40.076l15-5.5-1.13-8.076zM24.014 7.12L19 10.34V17h10v-6.706L24.014 7.12z" fill="#F44B21"/>
        <path fill="#FFF" d="M29.87 26.5l-12.432 4.525L16 40.076l15-5.5z"/>
        <path d="M24 48c-5.446 0-10.535-.029-15.5 0l4-25h11.535L24 48z" fill="url(#a)" fill-rule="nonzero"/>
        <path fill="#FFF176" fill-rule="nonzero" d="M29 17v-6.827L24.014 7 19 10.218V17z"/>
        <path fill="url(#b)" fill-rule="nonzero" transform="matrix(-1 0 0 1 32 0)" d="M8 17h16v6H8z"/>
        <path fill="url(#c)" fill-rule="nonzero" d="M24 17H13V7l11-7z"/>
        <path fill="url(#d)" fill-rule="nonzero" d="M24 0l11 7v10h5v6h-4.5l4 25h-31l4-25H8v-6h5V7.06z"/>
    </g>
</svg>
